<mxfile host="app.diagrams.net" modified="2024-03-25T17:26:43.044Z" agent="Mozilla/5.0 (Windows NT 10.0; Win64; x64) AppleWebKit/537.36 (KHTML, like Gecko) Chrome/122.0.0.0 Safari/537.36" etag="GBjbOGuflyIBP9nojuLq" version="24.1.0" type="device">
  <diagram name="Strona-1" id="_7K6d26dBhwJBkeT9oB3">
    <mxGraphModel dx="2391" dy="1066" grid="1" gridSize="10" guides="1" tooltips="1" connect="1" arrows="1" fold="1" page="1" pageScale="1" pageWidth="1654" pageHeight="2336" math="0" shadow="0">
      <root>
        <mxCell id="0" />
        <mxCell id="1" parent="0" />
        <mxCell id="IEZtZ2nOHyGMaf9Fokc5-3" value="Add movie" style="ellipse;whiteSpace=wrap;html=1;" parent="1" vertex="1">
          <mxGeometry x="270" y="1120" width="120" height="80" as="geometry" />
        </mxCell>
        <mxCell id="IEZtZ2nOHyGMaf9Fokc5-7" value="Approve reports" style="ellipse;whiteSpace=wrap;html=1;" parent="1" vertex="1">
          <mxGeometry x="270" y="1420" width="120" height="80" as="geometry" />
        </mxCell>
        <mxCell id="IEZtZ2nOHyGMaf9Fokc5-8" value="Reject reports" style="ellipse;whiteSpace=wrap;html=1;" parent="1" vertex="1">
          <mxGeometry x="270" y="1520" width="120" height="80" as="geometry" />
        </mxCell>
        <mxCell id="IEZtZ2nOHyGMaf9Fokc5-9" value="Delete User" style="ellipse;whiteSpace=wrap;html=1;" parent="1" vertex="1">
          <mxGeometry x="270" y="1720" width="120" height="80" as="geometry" />
        </mxCell>
        <mxCell id="IEZtZ2nOHyGMaf9Fokc5-10" value="Add review" style="ellipse;whiteSpace=wrap;html=1;" parent="1" vertex="1">
          <mxGeometry x="270" y="430" width="120" height="80" as="geometry" />
        </mxCell>
        <mxCell id="IEZtZ2nOHyGMaf9Fokc5-11" value="Update review" style="ellipse;whiteSpace=wrap;html=1;" parent="1" vertex="1">
          <mxGeometry x="460" y="430" width="120" height="80" as="geometry" />
        </mxCell>
        <mxCell id="IEZtZ2nOHyGMaf9Fokc5-12" value="Delete Movie" style="ellipse;whiteSpace=wrap;html=1;" parent="1" vertex="1">
          <mxGeometry x="270" y="1320" width="120" height="80" as="geometry" />
        </mxCell>
        <mxCell id="IEZtZ2nOHyGMaf9Fokc5-13" value="Update movie" style="ellipse;whiteSpace=wrap;html=1;" parent="1" vertex="1">
          <mxGeometry x="270" y="1220" width="120" height="80" as="geometry" />
        </mxCell>
        <mxCell id="IEZtZ2nOHyGMaf9Fokc5-16" value="Add Comment" style="ellipse;whiteSpace=wrap;html=1;" parent="1" vertex="1">
          <mxGeometry x="270" y="530" width="120" height="80" as="geometry" />
        </mxCell>
        <mxCell id="IEZtZ2nOHyGMaf9Fokc5-17" value="Delete Comment" style="ellipse;whiteSpace=wrap;html=1;" parent="1" vertex="1">
          <mxGeometry x="270" y="1620" width="120" height="80" as="geometry" />
        </mxCell>
        <mxCell id="IEZtZ2nOHyGMaf9Fokc5-18" value="Update Comment" style="ellipse;whiteSpace=wrap;html=1;" parent="1" vertex="1">
          <mxGeometry x="460" y="530" width="120" height="80" as="geometry" />
        </mxCell>
        <mxCell id="IEZtZ2nOHyGMaf9Fokc5-23" value="Register" style="ellipse;whiteSpace=wrap;html=1;" parent="1" vertex="1">
          <mxGeometry x="270" y="990" width="120" height="80" as="geometry" />
        </mxCell>
        <mxCell id="IEZtZ2nOHyGMaf9Fokc5-24" value="Inspect movie" style="ellipse;whiteSpace=wrap;html=1;" parent="1" vertex="1">
          <mxGeometry x="270" y="860" width="120" height="80" as="geometry" />
        </mxCell>
        <mxCell id="NHWFA-hQaNMmm3rJMBV7-3" value="" style="endArrow=block;endSize=16;endFill=0;html=1;rounded=0;" edge="1" parent="1" source="NHWFA-hQaNMmm3rJMBV7-4" target="NHWFA-hQaNMmm3rJMBV7-25">
          <mxGeometry width="160" relative="1" as="geometry">
            <mxPoint x="190" y="1120" as="sourcePoint" />
            <mxPoint x="50" y="1110" as="targetPoint" />
          </mxGeometry>
        </mxCell>
        <mxCell id="NHWFA-hQaNMmm3rJMBV7-5" value="" style="group;movable=1;resizable=1;rotatable=1;deletable=1;editable=1;locked=0;connectable=1;" vertex="1" connectable="0" parent="1">
          <mxGeometry x="65" y="1420" width="60" height="85" as="geometry" />
        </mxCell>
        <mxCell id="IEZtZ2nOHyGMaf9Fokc5-1" value="" style="shape=umlActor;verticalLabelPosition=bottom;verticalAlign=top;html=1;" parent="NHWFA-hQaNMmm3rJMBV7-5" vertex="1">
          <mxGeometry x="15" y="25" width="30" height="60" as="geometry" />
        </mxCell>
        <mxCell id="NHWFA-hQaNMmm3rJMBV7-4" value="Admin" style="text;html=1;align=center;verticalAlign=middle;resizable=0;points=[];autosize=1;strokeColor=none;fillColor=none;" vertex="1" parent="NHWFA-hQaNMmm3rJMBV7-5">
          <mxGeometry width="60" height="30" as="geometry" />
        </mxCell>
        <mxCell id="NHWFA-hQaNMmm3rJMBV7-7" value="Add to favourites" style="ellipse;whiteSpace=wrap;html=1;" vertex="1" parent="1">
          <mxGeometry x="460" y="860" width="120" height="80" as="geometry" />
        </mxCell>
        <mxCell id="NHWFA-hQaNMmm3rJMBV7-9" value="Extends" style="endArrow=block;endSize=16;endFill=0;html=1;rounded=0;" edge="1" parent="1" source="IEZtZ2nOHyGMaf9Fokc5-11" target="IEZtZ2nOHyGMaf9Fokc5-10">
          <mxGeometry width="160" relative="1" as="geometry">
            <mxPoint x="420" y="710" as="sourcePoint" />
            <mxPoint x="580" y="710" as="targetPoint" />
            <Array as="points" />
          </mxGeometry>
        </mxCell>
        <mxCell id="NHWFA-hQaNMmm3rJMBV7-11" value="Extends" style="endArrow=block;endSize=16;endFill=0;html=1;rounded=0;" edge="1" parent="1" source="IEZtZ2nOHyGMaf9Fokc5-18" target="IEZtZ2nOHyGMaf9Fokc5-16">
          <mxGeometry width="160" relative="1" as="geometry">
            <mxPoint x="410" y="650" as="sourcePoint" />
            <mxPoint x="570" y="650" as="targetPoint" />
          </mxGeometry>
        </mxCell>
        <mxCell id="NHWFA-hQaNMmm3rJMBV7-13" value="Include" style="html=1;verticalAlign=bottom;endArrow=open;dashed=1;endSize=8;curved=0;rounded=0;" edge="1" parent="1" source="IEZtZ2nOHyGMaf9Fokc5-24" target="NHWFA-hQaNMmm3rJMBV7-7">
          <mxGeometry relative="1" as="geometry">
            <mxPoint x="480" y="960" as="sourcePoint" />
            <mxPoint x="400" y="960" as="targetPoint" />
          </mxGeometry>
        </mxCell>
        <mxCell id="NHWFA-hQaNMmm3rJMBV7-14" value="" style="endArrow=open;endFill=1;endSize=12;html=1;rounded=0;" edge="1" parent="1" source="IEZtZ2nOHyGMaf9Fokc5-2" target="IEZtZ2nOHyGMaf9Fokc5-23">
          <mxGeometry width="160" relative="1" as="geometry">
            <mxPoint x="80" y="910" as="sourcePoint" />
            <mxPoint x="240" y="910" as="targetPoint" />
          </mxGeometry>
        </mxCell>
        <mxCell id="NHWFA-hQaNMmm3rJMBV7-18" value="" style="endArrow=open;endFill=1;endSize=12;html=1;rounded=0;" edge="1" parent="1" source="IEZtZ2nOHyGMaf9Fokc5-2" target="IEZtZ2nOHyGMaf9Fokc5-24">
          <mxGeometry width="160" relative="1" as="geometry">
            <mxPoint x="240" y="810" as="sourcePoint" />
            <mxPoint x="339" y="986" as="targetPoint" />
          </mxGeometry>
        </mxCell>
        <mxCell id="NHWFA-hQaNMmm3rJMBV7-20" value="" style="endArrow=open;endFill=1;endSize=12;html=1;rounded=0;" edge="1" parent="1" source="IEZtZ2nOHyGMaf9Fokc5-2" target="IEZtZ2nOHyGMaf9Fokc5-15">
          <mxGeometry width="160" relative="1" as="geometry">
            <mxPoint x="420" y="740" as="sourcePoint" />
            <mxPoint x="580" y="740" as="targetPoint" />
          </mxGeometry>
        </mxCell>
        <mxCell id="NHWFA-hQaNMmm3rJMBV7-21" value="" style="endArrow=open;endFill=1;endSize=12;html=1;rounded=0;" edge="1" parent="1" source="IEZtZ2nOHyGMaf9Fokc5-2" target="IEZtZ2nOHyGMaf9Fokc5-16">
          <mxGeometry width="160" relative="1" as="geometry">
            <mxPoint x="420" y="630" as="sourcePoint" />
            <mxPoint x="580" y="630" as="targetPoint" />
          </mxGeometry>
        </mxCell>
        <mxCell id="NHWFA-hQaNMmm3rJMBV7-22" value="" style="endArrow=open;endFill=1;endSize=12;html=1;rounded=0;" edge="1" parent="1" source="IEZtZ2nOHyGMaf9Fokc5-2" target="IEZtZ2nOHyGMaf9Fokc5-10">
          <mxGeometry width="160" relative="1" as="geometry">
            <mxPoint x="420" y="510" as="sourcePoint" />
            <mxPoint x="580" y="510" as="targetPoint" />
          </mxGeometry>
        </mxCell>
        <mxCell id="NHWFA-hQaNMmm3rJMBV7-28" value="" style="group" vertex="1" connectable="0" parent="1">
          <mxGeometry x="70" y="548" width="50" height="112" as="geometry" />
        </mxCell>
        <mxCell id="NHWFA-hQaNMmm3rJMBV7-26" value="" style="group" vertex="1" connectable="0" parent="NHWFA-hQaNMmm3rJMBV7-28">
          <mxGeometry width="50" height="82" as="geometry" />
        </mxCell>
        <mxCell id="IEZtZ2nOHyGMaf9Fokc5-2" value="&lt;div style=&quot;&quot;&gt;&lt;br&gt;&lt;/div&gt;" style="shape=umlActor;verticalLabelPosition=bottom;verticalAlign=top;html=1;align=center;" parent="NHWFA-hQaNMmm3rJMBV7-26" vertex="1">
          <mxGeometry x="10" y="22" width="30" height="60" as="geometry" />
        </mxCell>
        <mxCell id="NHWFA-hQaNMmm3rJMBV7-25" value="User" style="text;html=1;align=center;verticalAlign=middle;resizable=0;points=[];autosize=1;strokeColor=none;fillColor=none;" vertex="1" parent="NHWFA-hQaNMmm3rJMBV7-28">
          <mxGeometry y="82" width="50" height="30" as="geometry" />
        </mxCell>
        <mxCell id="NHWFA-hQaNMmm3rJMBV7-29" value="" style="endArrow=open;endFill=1;endSize=12;html=1;rounded=0;" edge="1" parent="1" source="NHWFA-hQaNMmm3rJMBV7-5" target="IEZtZ2nOHyGMaf9Fokc5-12">
          <mxGeometry width="160" relative="1" as="geometry">
            <mxPoint x="180" y="1520" as="sourcePoint" />
            <mxPoint x="490" y="1530" as="targetPoint" />
          </mxGeometry>
        </mxCell>
        <mxCell id="NHWFA-hQaNMmm3rJMBV7-33" value="" style="endArrow=open;endFill=1;endSize=12;html=1;rounded=0;" edge="1" parent="1" source="NHWFA-hQaNMmm3rJMBV7-5" target="IEZtZ2nOHyGMaf9Fokc5-3">
          <mxGeometry width="160" relative="1" as="geometry">
            <mxPoint x="130" y="1374" as="sourcePoint" />
            <mxPoint x="280" y="1371" as="targetPoint" />
          </mxGeometry>
        </mxCell>
        <mxCell id="NHWFA-hQaNMmm3rJMBV7-34" value="" style="endArrow=open;endFill=1;endSize=12;html=1;rounded=0;" edge="1" parent="1" source="NHWFA-hQaNMmm3rJMBV7-5" target="IEZtZ2nOHyGMaf9Fokc5-13">
          <mxGeometry width="160" relative="1" as="geometry">
            <mxPoint x="140" y="1384" as="sourcePoint" />
            <mxPoint x="290" y="1381" as="targetPoint" />
          </mxGeometry>
        </mxCell>
        <mxCell id="NHWFA-hQaNMmm3rJMBV7-35" value="" style="endArrow=open;endFill=1;endSize=12;html=1;rounded=0;" edge="1" parent="1" source="NHWFA-hQaNMmm3rJMBV7-5" target="IEZtZ2nOHyGMaf9Fokc5-7">
          <mxGeometry width="160" relative="1" as="geometry">
            <mxPoint x="150" y="1394" as="sourcePoint" />
            <mxPoint x="300" y="1391" as="targetPoint" />
          </mxGeometry>
        </mxCell>
        <mxCell id="NHWFA-hQaNMmm3rJMBV7-36" value="" style="endArrow=open;endFill=1;endSize=12;html=1;rounded=0;" edge="1" parent="1" source="NHWFA-hQaNMmm3rJMBV7-5" target="IEZtZ2nOHyGMaf9Fokc5-8">
          <mxGeometry width="160" relative="1" as="geometry">
            <mxPoint x="160" y="1404" as="sourcePoint" />
            <mxPoint x="310" y="1401" as="targetPoint" />
          </mxGeometry>
        </mxCell>
        <mxCell id="NHWFA-hQaNMmm3rJMBV7-37" value="" style="endArrow=open;endFill=1;endSize=12;html=1;rounded=0;" edge="1" parent="1" source="NHWFA-hQaNMmm3rJMBV7-5" target="IEZtZ2nOHyGMaf9Fokc5-17">
          <mxGeometry width="160" relative="1" as="geometry">
            <mxPoint x="170" y="1414" as="sourcePoint" />
            <mxPoint x="320" y="1411" as="targetPoint" />
          </mxGeometry>
        </mxCell>
        <mxCell id="NHWFA-hQaNMmm3rJMBV7-38" value="" style="endArrow=open;endFill=1;endSize=12;html=1;rounded=0;" edge="1" parent="1" source="NHWFA-hQaNMmm3rJMBV7-5" target="IEZtZ2nOHyGMaf9Fokc5-9">
          <mxGeometry width="160" relative="1" as="geometry">
            <mxPoint x="180" y="1424" as="sourcePoint" />
            <mxPoint x="330" y="1421" as="targetPoint" />
          </mxGeometry>
        </mxCell>
        <mxCell id="IEZtZ2nOHyGMaf9Fokc5-15" value="Browse movies" style="ellipse;whiteSpace=wrap;html=1;" parent="1" vertex="1">
          <mxGeometry x="270" y="710" width="120" height="80" as="geometry" />
        </mxCell>
        <mxCell id="IEZtZ2nOHyGMaf9Fokc5-19" value="Filter" style="ellipse;whiteSpace=wrap;html=1;" parent="1" vertex="1">
          <mxGeometry x="460" y="760" width="120" height="80" as="geometry" />
        </mxCell>
        <mxCell id="IEZtZ2nOHyGMaf9Fokc5-20" value="Sort&amp;nbsp;" style="ellipse;whiteSpace=wrap;html=1;" parent="1" vertex="1">
          <mxGeometry x="460" y="630" width="120" height="80" as="geometry" />
        </mxCell>
        <mxCell id="NHWFA-hQaNMmm3rJMBV7-1" value="Extends" style="endArrow=block;endSize=16;endFill=0;html=1;rounded=0;" edge="1" parent="1" source="IEZtZ2nOHyGMaf9Fokc5-20" target="IEZtZ2nOHyGMaf9Fokc5-15">
          <mxGeometry width="160" relative="1" as="geometry">
            <mxPoint x="720" y="470" as="sourcePoint" />
            <mxPoint x="880" y="470" as="targetPoint" />
            <Array as="points" />
          </mxGeometry>
        </mxCell>
        <mxCell id="NHWFA-hQaNMmm3rJMBV7-2" value="Extends" style="endArrow=block;endSize=16;endFill=0;html=1;rounded=0;" edge="1" parent="1" source="IEZtZ2nOHyGMaf9Fokc5-19" target="IEZtZ2nOHyGMaf9Fokc5-15">
          <mxGeometry width="160" relative="1" as="geometry">
            <mxPoint x="540" y="690" as="sourcePoint" />
            <mxPoint x="700" y="690" as="targetPoint" />
          </mxGeometry>
        </mxCell>
      </root>
    </mxGraphModel>
  </diagram>
</mxfile>
